<mxfile host="Electron" agent="Mozilla/5.0 (Macintosh; Intel Mac OS X 10_15_7) AppleWebKit/537.36 (KHTML, like Gecko) draw.io/24.7.8 Chrome/128.0.6613.36 Electron/32.0.1 Safari/537.36" version="24.7.8">
  <diagram name="第 1 页" id="xa-W8AKms01reeP3A3bH">
    <mxGraphModel dx="954" dy="727" grid="1" gridSize="10" guides="1" tooltips="1" connect="1" arrows="1" fold="1" page="1" pageScale="1" pageWidth="827" pageHeight="1169" math="0" shadow="0">
      <root>
        <mxCell id="0" />
        <mxCell id="1" parent="0" />
        <mxCell id="k8V-h08iGZGNFUfi5GHQ-1" value="3" style="whiteSpace=wrap;html=1;aspect=fixed;" vertex="1" parent="1">
          <mxGeometry x="120" y="160" width="40" height="40" as="geometry" />
        </mxCell>
        <mxCell id="k8V-h08iGZGNFUfi5GHQ-2" value="2" style="whiteSpace=wrap;html=1;aspect=fixed;" vertex="1" parent="1">
          <mxGeometry x="160" y="160" width="40" height="40" as="geometry" />
        </mxCell>
        <mxCell id="k8V-h08iGZGNFUfi5GHQ-3" value="1" style="whiteSpace=wrap;html=1;aspect=fixed;" vertex="1" parent="1">
          <mxGeometry x="200" y="160" width="40" height="40" as="geometry" />
        </mxCell>
        <mxCell id="k8V-h08iGZGNFUfi5GHQ-4" value="0" style="whiteSpace=wrap;html=1;aspect=fixed;" vertex="1" parent="1">
          <mxGeometry x="240" y="160" width="40" height="40" as="geometry" />
        </mxCell>
        <mxCell id="k8V-h08iGZGNFUfi5GHQ-5" value="4" style="whiteSpace=wrap;html=1;aspect=fixed;" vertex="1" parent="1">
          <mxGeometry x="280" y="160" width="40" height="40" as="geometry" />
        </mxCell>
        <mxCell id="k8V-h08iGZGNFUfi5GHQ-6" value="2" style="whiteSpace=wrap;html=1;aspect=fixed;" vertex="1" parent="1">
          <mxGeometry x="520" y="160" width="40" height="40" as="geometry" />
        </mxCell>
        <mxCell id="k8V-h08iGZGNFUfi5GHQ-7" value="3" style="whiteSpace=wrap;html=1;aspect=fixed;" vertex="1" parent="1">
          <mxGeometry x="560" y="160" width="40" height="40" as="geometry" />
        </mxCell>
        <mxCell id="k8V-h08iGZGNFUfi5GHQ-8" value="1" style="whiteSpace=wrap;html=1;aspect=fixed;" vertex="1" parent="1">
          <mxGeometry x="600" y="160" width="40" height="40" as="geometry" />
        </mxCell>
        <mxCell id="k8V-h08iGZGNFUfi5GHQ-9" value="1" style="whiteSpace=wrap;html=1;aspect=fixed;" vertex="1" parent="1">
          <mxGeometry x="640" y="160" width="40" height="40" as="geometry" />
        </mxCell>
        <mxCell id="k8V-h08iGZGNFUfi5GHQ-10" value="4" style="whiteSpace=wrap;html=1;aspect=fixed;" vertex="1" parent="1">
          <mxGeometry x="680" y="160" width="40" height="40" as="geometry" />
        </mxCell>
        <mxCell id="k8V-h08iGZGNFUfi5GHQ-11" value="" style="rounded=0;whiteSpace=wrap;html=1;strokeColor=none;fillColor=#FF0000;" vertex="1" parent="1">
          <mxGeometry x="120" y="250" width="160" height="20" as="geometry" />
        </mxCell>
        <mxCell id="k8V-h08iGZGNFUfi5GHQ-12" value="" style="rounded=0;whiteSpace=wrap;html=1;strokeColor=none;fillColor=#FF0000;" vertex="1" parent="1">
          <mxGeometry x="160" y="290" width="120" height="20" as="geometry" />
        </mxCell>
        <mxCell id="k8V-h08iGZGNFUfi5GHQ-13" value="" style="rounded=0;whiteSpace=wrap;html=1;strokeColor=none;fillColor=#FF0000;" vertex="1" parent="1">
          <mxGeometry x="200" y="330" width="80" height="20" as="geometry" />
        </mxCell>
        <mxCell id="k8V-h08iGZGNFUfi5GHQ-14" value="" style="rounded=0;whiteSpace=wrap;html=1;strokeColor=none;fillColor=#FF0000;" vertex="1" parent="1">
          <mxGeometry x="520" y="250" width="120" height="20" as="geometry" />
        </mxCell>
        <mxCell id="k8V-h08iGZGNFUfi5GHQ-15" value="" style="rounded=0;whiteSpace=wrap;html=1;strokeColor=none;fillColor=#FF0000;" vertex="1" parent="1">
          <mxGeometry x="560" y="290" width="160" height="20" as="geometry" />
        </mxCell>
        <mxCell id="k8V-h08iGZGNFUfi5GHQ-16" value="0" style="text;html=1;align=center;verticalAlign=middle;resizable=0;points=[];autosize=1;strokeColor=none;fillColor=none;" vertex="1" parent="1">
          <mxGeometry x="125" y="125" width="30" height="30" as="geometry" />
        </mxCell>
        <mxCell id="k8V-h08iGZGNFUfi5GHQ-17" value="1" style="text;html=1;align=center;verticalAlign=middle;resizable=0;points=[];autosize=1;strokeColor=none;fillColor=none;" vertex="1" parent="1">
          <mxGeometry x="165" y="125" width="30" height="30" as="geometry" />
        </mxCell>
        <mxCell id="k8V-h08iGZGNFUfi5GHQ-18" value="2" style="text;html=1;align=center;verticalAlign=middle;resizable=0;points=[];autosize=1;strokeColor=none;fillColor=none;" vertex="1" parent="1">
          <mxGeometry x="205" y="125" width="30" height="30" as="geometry" />
        </mxCell>
        <mxCell id="k8V-h08iGZGNFUfi5GHQ-19" value="3" style="text;html=1;align=center;verticalAlign=middle;resizable=0;points=[];autosize=1;strokeColor=none;fillColor=none;" vertex="1" parent="1">
          <mxGeometry x="245" y="125" width="30" height="30" as="geometry" />
        </mxCell>
        <mxCell id="k8V-h08iGZGNFUfi5GHQ-20" value="4" style="text;html=1;align=center;verticalAlign=middle;resizable=0;points=[];autosize=1;strokeColor=none;fillColor=none;" vertex="1" parent="1">
          <mxGeometry x="285" y="125" width="30" height="30" as="geometry" />
        </mxCell>
        <mxCell id="k8V-h08iGZGNFUfi5GHQ-21" value="0" style="text;html=1;align=center;verticalAlign=middle;resizable=0;points=[];autosize=1;strokeColor=none;fillColor=none;" vertex="1" parent="1">
          <mxGeometry x="525" y="125" width="30" height="30" as="geometry" />
        </mxCell>
        <mxCell id="k8V-h08iGZGNFUfi5GHQ-22" value="1" style="text;html=1;align=center;verticalAlign=middle;resizable=0;points=[];autosize=1;strokeColor=none;fillColor=none;" vertex="1" parent="1">
          <mxGeometry x="565" y="125" width="30" height="30" as="geometry" />
        </mxCell>
        <mxCell id="k8V-h08iGZGNFUfi5GHQ-23" value="2" style="text;html=1;align=center;verticalAlign=middle;resizable=0;points=[];autosize=1;strokeColor=none;fillColor=none;" vertex="1" parent="1">
          <mxGeometry x="605" y="125" width="30" height="30" as="geometry" />
        </mxCell>
        <mxCell id="k8V-h08iGZGNFUfi5GHQ-24" value="3" style="text;html=1;align=center;verticalAlign=middle;resizable=0;points=[];autosize=1;strokeColor=none;fillColor=none;" vertex="1" parent="1">
          <mxGeometry x="645" y="125" width="30" height="30" as="geometry" />
        </mxCell>
        <mxCell id="k8V-h08iGZGNFUfi5GHQ-25" value="4" style="text;html=1;align=center;verticalAlign=middle;resizable=0;points=[];autosize=1;strokeColor=none;fillColor=none;" vertex="1" parent="1">
          <mxGeometry x="685" y="125" width="30" height="30" as="geometry" />
        </mxCell>
        <mxCell id="k8V-h08iGZGNFUfi5GHQ-26" value="下标 i：" style="text;html=1;align=center;verticalAlign=middle;resizable=0;points=[];autosize=1;strokeColor=none;fillColor=none;" vertex="1" parent="1">
          <mxGeometry x="30" y="125" width="70" height="30" as="geometry" />
        </mxCell>
        <mxCell id="k8V-h08iGZGNFUfi5GHQ-27" value="下标 i：" style="text;html=1;align=center;verticalAlign=middle;resizable=0;points=[];autosize=1;strokeColor=none;fillColor=none;" vertex="1" parent="1">
          <mxGeometry x="440" y="125" width="70" height="30" as="geometry" />
        </mxCell>
        <mxCell id="k8V-h08iGZGNFUfi5GHQ-28" value="cover 仅覆盖到下标3" style="text;html=1;align=center;verticalAlign=middle;resizable=0;points=[];autosize=1;strokeColor=none;fillColor=none;" vertex="1" parent="1">
          <mxGeometry x="175" y="370" width="130" height="30" as="geometry" />
        </mxCell>
        <mxCell id="k8V-h08iGZGNFUfi5GHQ-29" value="cover覆盖了终点，下标4" style="text;html=1;align=center;verticalAlign=middle;resizable=0;points=[];autosize=1;strokeColor=none;fillColor=none;" vertex="1" parent="1">
          <mxGeometry x="560" y="325" width="160" height="30" as="geometry" />
        </mxCell>
      </root>
    </mxGraphModel>
  </diagram>
</mxfile>
